<?xml version="1.0" encoding="UTF-8"?>
<svg id="Layer_2" data-name="Layer 2" xmlns="http://www.w3.org/2000/svg" viewBox="0 0 119.46 119.46">
  <defs>
    <style>
      .cls-1 {
        fill: none;
        stroke: #ff0;
        stroke-miterlimit: 10;
      }
    </style>
  </defs>
  <g id="Layer_1-2" data-name="Layer 1">
    <rect class="cls-1" x=".5" y=".5" width="118.46" height="118.46"/>
    <polygon class="cls-1" points="36.38 106.34 25.82 95.77 25.82 87.63 19.69 81.49 19.69 44.75 33.06 31.38 33.06 25.35 41.3 17.11 57.79 17.11 78.16 17.11 86.4 25.35 86.4 31.38 99.77 44.75 99.77 81.49 93.64 87.63 93.64 95.77 83.08 106.34 57.79 106.34 36.38 106.34"/>
    <polyline class="cls-1" points="57.03 78.92 57.03 54.24 23.87 54.24 23.87 71.94 43.32 71.94 43.32 62.22 34.59 62.22"/>
    <polyline class="cls-1" points="41.65 42.16 48.58 42.16 48.58 33.27 35.06 33.27 35.06 51.06 57.03 51.06 57.03 20.53 44.57 20.53 44.57 27.7 51.82 27.7 51.82 25.29"/>
    <polyline class="cls-1" points="77.81 42.16 70.88 42.16 70.88 33.27 84.4 33.27 84.4 51.06 62.43 51.06 62.43 20.53 74.9 20.53 74.9 27.7 67.64 27.7 67.64 25.29"/>
    <polyline class="cls-1" points="42.6 91.99 48.83 91.99 48.83 100.1 36.37 100.1 36.37 80.86 57.03 80.86 57.03 102.52"/>
    <polyline class="cls-1" points="76.86 91.99 70.63 91.99 70.63 100.1 83.1 100.1 83.1 80.86 62.43 80.86 62.43 102.52"/>
    <polyline class="cls-1" points="62.43 78.92 62.43 54.24 95.59 54.24 95.59 71.94 76.14 71.94 76.14 62.22 84.87 62.22"/>
  </g>
</svg>